<?xml version="1.0" encoding="UTF-8"?>
<svg id="Layer_2" data-name="Layer 2" xmlns="http://www.w3.org/2000/svg" viewBox="0 0 265.94 97.12">
  <defs>
    <style>
      .cls-1 {
        fill: #ea4439;
      }
    </style>
  </defs>
  <g id="Layer_1-2" data-name="Layer 1">
    <path class="cls-1" d="M196.6,33.91c0,7.76,5.14,13.16,14.91,13.16,12.82,0,16.39-7.76,16.48-14.99h.87v.44c.09,10.03,3.84,14.56,12.12,14.56s13.43-2.96,13.43-16.39v-5.41h-8.37v1.99c0,.7-.35.87-.7.87s-.78-.17-.78-.87v-10.53c0-3.84-2.09-16.74-24.32-16.74-16.04,0-21.27,6.1-21.27,11.25,0,6.97,4.71,8.54,9.24,8.54,6.71,0,8.19-4.1,8.19-5.93s-.87-2.27-.87-2.27c0,0,.52-.35,1.66-.35,3.57,0,5.06,3.14,5.32,8.63-10.11,0-25.89,2.62-25.89,14.04ZM222.49,24.76v3.57c0,2.53-1.22,3.92-3.31,3.92-1.92,0-2.7-1.22-2.7-3.05,0-4.18,4.97-4.45,6.02-4.45ZM68.95,19.79c6.71,0,8.19-4.1,8.19-5.93s-.87-2.27-.87-2.27c0,0,.52-.35,1.66-.35,3.57,0,5.06,3.14,5.32,8.63-10.11,0-25.89,2.62-25.89,14.04,0,7.76,5.14,13.16,14.91,13.16,12.82,0,16.39-7.76,16.48-14.99h.87v.44c.09,10.03,3.84,14.56,12.12,14.56s13.43-2.96,13.43-16.39v-5.41h-8.37v1.99c0,.7-.35.87-.7.87s-.78-.17-.78-.87v-10.53c0-3.84-2.09-16.74-24.32-16.74-16.04,0-21.27,6.1-21.27,11.25,0,6.97,4.71,8.54,9.24,8.54ZM83.24,28.33c0,2.53-1.22,3.92-3.31,3.92-1.92,0-2.7-1.22-2.7-3.05,0-4.18,4.97-4.45,6.02-4.45v3.57ZM240.4,50.04c-12.64,0-25.54,7.24-25.54,23.36s12.9,23.71,25.54,23.71,25.54-7.15,25.54-23.71-13.08-23.36-25.54-23.36ZM240.4,81.42c-2.53,0-4.79-2.35-4.79-7.76s2.27-7.93,4.79-7.93,4.79,2.44,4.79,7.93-2.27,7.76-4.79,7.76ZM194.99,31.12v-14.99c0-10.11-4.64-16.13-15.1-16.13-6.54,0-11.33,3.4-14.47,7.58-2.09-4.88-6.45-7.58-13.51-7.58s-12.44,4.2-15.45,9.06c-1.33,1.51-2.35-.06-1.99-.77.01-.02.02-.04.02-.04,1.07-2.45,2.27-4.18,2.95-5.2v-.87h-25.11v14.56h5.06v29.03h24.15v-14.65h-2.53v-10.55c0-1.83,1.13-4.01,3.31-4.01,1.92,0,2.7,1.22,2.7,3.05v13.16c0,9.5,4.88,14.3,13.86,14.3,4.71,0,9.59-1.31,12.21-3.23v-12.73h-4.1v-10.55c0-1.83,1.13-4.01,3.31-4.01,1.92,0,2.7,1.22,2.7,3.05v25.19c0,5.32-.42,7.41-4.78,7.41h-1.83v14.56h7.24v12.99c0,10.64,5.93,17.35,18.39,17.35,13.86,0,21-5.67,21-16.65v-6.28h-13.95l-.09,2.44c0,1.92-.44,3.31-2.01,3.31-1.39,0-2.18-1.13-2.18-2.7v-10.46h18.22v-14.56h-18.04v-21.1ZM110.29,66.17c0-10.11-4.62-16.13-15.08-16.13-6.54,0-11.33,3.4-14.47,7.58-2.09-4.88-6.45-7.58-13.51-7.58s-12.43,4.19-15.44,9.04c-1.29,1.48-2.29.06-2.03-.69,1.08-2.5,2.31-4.27,3-5.3v-.87h-14.03c1.22-2.22,2.35-4.61,3.39-7.15l11.59-28.33h3.92V2.18h-27.66l3.46,17.93h-4.98l3.34,16.08-10.63-21.22h4.8l-5.44-12.79H0v14.56h3.92l13.86,29.03h3.84c0,3.75-2.96,7.5-9.59,7.5-3.75,0-7.41-1.74-9.24-2.79l-1.05,12.99s3.75,4.97,13.25,4.97c5.27,0,9.74-1.51,13.57-4.19v2.66h4.14v28.91h24.15v-14.65h-2.53v-10.55c0-1.83,1.13-4.01,3.31-4.01,1.92,0,2.7,1.22,2.7,3.05v13.16c0,9.5,4.88,14.3,13.86,14.3,4.71,0,9.59-1.31,12.21-3.23v-12.73h-4.1v-10.55c0-1.83,1.13-4.01,3.31-4.01,1.92,0,2.7,1.22,2.7,3.05v13.16c0,9.5,4.88,14.3,13.86,14.3,4.71,0,9.59-1.31,12.21-3.23v-12.73h-4.1v-14.99ZM140.31,50.04c-12.64,0-25.54,7.24-25.54,23.36s12.9,23.71,25.54,23.71,25.54-7.15,25.54-23.71-13.08-23.36-25.54-23.36ZM140.31,81.42c-2.53,0-4.79-2.35-4.79-7.76s2.27-7.93,4.79-7.93,4.79,2.44,4.79,7.93-2.27,7.76-4.79,7.76Z"/>
  </g>
</svg>